<?xml version="1.0" encoding="UTF-8"?><svg id="Layer_1" xmlns="http://www.w3.org/2000/svg" viewBox="0 0 51 51"><defs><style>.cls-1{fill:#f5f5f5;}.cls-2{fill-rule:evenodd;}</style></defs><g id="Path_27-2"><path class="cls-1" d="m39,50H12c-2.9,0-5.7-1.1-7.8-3.2-2.1-2.1-3.2-4.8-3.2-7.8V12c0-2.9,1.1-5.7,3.2-7.8S9,1,12,1h27c2.9,0,5.7,1.1,7.8,3.2s3.2,4.8,3.2,7.8v27c0,2.9-1.1,5.7-3.2,7.8-2.1,2.1-4.9,3.2-7.8,3.2Z"/><path d="m12,2C6.5,2,2,6.5,2,12v27c0,5.5,4.5,10,10,10h27c5.5,0,10-4.5,10-10V12c0-5.5-4.5-10-10-10H12m0-2h27c6.6,0,12,5.4,12,12v27c0,6.6-5.4,12-12,12H12c-6.6,0-12-5.4-12-12V12C0,5.4,5.4,0,12,0Z"/></g><path class="cls-2" d="m25.5,10.8c-8.3,0-15,6.8-15,15.1,0,6.7,4.3,12.3,10.3,14.3.8.2,1-.3,1-.7v-2.8c-4.2.9-5-1.8-5-1.8-.7-1.8-1.7-2.2-1.7-2.2-1.4-.9.1-.9.1-.9,1.5.1,2.3,1.5,2.3,1.5,1.3,2.3,3.5,1.7,4.4,1.2.1-1,.5-1.7.9-2-3.3-.3-6.8-1.7-6.8-7.5,0-1.7.6-3,1.5-4.1-.2-.4-.7-1.9.2-4,0,0,1.3-.4,4.1,1.5,1.2-.3,2.5-.5,3.8-.5s2.6.2,3.8.5c2.9-2,4.1-1.5,4.1-1.5.8,2.1.3,3.6.2,4,1,1.1,1.5,2.4,1.5,4.1,0,5.8-3.5,7.1-6.9,7.5.5.5,1,1.4,1,2.8v4.2c0,.4.3.9,1,.7,6-2,10.3-7.7,10.3-14.3-.1-8.3-6.8-15.1-15.1-15.1Z"/></svg>