<?xml version="1.0" encoding="UTF-8"?><svg id="Layer_1" xmlns="http://www.w3.org/2000/svg" viewBox="0 0 51 51"><defs><style>.cls-1{fill:#f5f5f5;}</style></defs><path class="cls-1" d="m39,50H12c-2.9,0-5.7-1.1-7.8-3.2-2.1-2.1-3.2-4.8-3.2-7.8V12c0-2.9,1.1-5.7,3.2-7.8s4.8-3.2,7.8-3.2h27c2.9,0,5.7,1.1,7.8,3.2s3.2,4.8,3.2,7.8v27c0,2.9-1.1,5.7-3.2,7.8-2.1,2.1-4.9,3.2-7.8,3.2Z"/><path d="m12,2C6.5,2,2,6.5,2,12v27c0,5.5,4.5,10,10,10h27c5.5,0,10-4.5,10-10V12c0-5.5-4.5-10-10-10H12m0-2h27c6.6,0,12,5.4,12,12v27c0,6.6-5.4,12-12,12H12c-6.6,0-12-5.4-12-12V12C0,5.4,5.4,0,12,0Z"/><path d="m33.96,27.15c-1.16,0-2.29.1-3.39.29,1.51,3.9,2.66,7.98,3.41,12.2,3.93-2.37,6.81-6.31,7.72-10.97-2.39-.98-5-1.52-7.73-1.52Zm-6.79-1.45c-.44-1-.91-1.99-1.4-2.96-3.43,1.25-7.14,1.94-11,1.94-1.95,0-3.86-.18-5.71-.52-.04.44-.07.89-.07,1.34,0,4.46,1.79,8.51,4.67,11.48,2.8-5.35,7.65-9.46,13.5-11.28Zm.89-3.91c.54,1.09,1.06,2.18,1.55,3.3,1.41-.27,2.86-.42,4.35-.42,2.82,0,5.52.52,8.02,1.45,0-.21.03-.41.03-.63,0-4.11-1.52-7.87-4.01-10.76-2.82,2.94-6.18,5.34-9.93,7.05Zm-12.48,16.87c2.77,2.09,6.19,3.34,9.92,3.34,2.18,0,4.26-.43,6.16-1.21-.73-4.44-1.93-8.72-3.54-12.8-5.52,1.65-10.06,5.56-12.54,10.66Zm20.66-25.67c-2.89-2.49-6.64-4-10.74-4-1.8,0-3.53.3-5.15.83,2.47,3.04,4.67,6.31,6.57,9.76,3.53-1.59,6.69-3.84,9.32-6.6Zm-26.79,8.72c1.73.31,3.5.49,5.32.49,3.44,0,6.75-.6,9.83-1.68-1.91-3.44-4.13-6.69-6.62-9.69-4.24,2.18-7.41,6.14-8.53,10.89Z"/></svg>