<?xml version="1.0" encoding="UTF-8"?><svg id="Layer_1" xmlns="http://www.w3.org/2000/svg" viewBox="0 0 51.7 51.7"><defs><style>.cls-1{fill:#f5f5f5;}.cls-2{fill:none;stroke:#000;stroke-width:2px;}</style></defs><g id="Rectangle_21"><path class="cls-1" d="m13.2,1.9h25.3c6.2,0,11.2,5,11.2,11.2v25.4c0,6.2-5,11.2-11.2,11.2H13.2c-6.2,0-11.2-5-11.2-11.2V13.2C2,7,7,1.9,13.2,1.9Z"/><path class="cls-2" d="m13.2,1h25.3c6.7,0,12.2,5.5,12.2,12.2v25.3c0,6.7-5.5,12.2-12.2,12.2H13.2c-6.7,0-12.2-5.5-12.2-12.2V13.2C1,6.4,6.5,1,13.2,1Z"/></g><g><path d="m13.5,21.2h5.7v18.4h-5.7v-18.4Zm2.8-9.1c1.8,0,3.3,1.5,3.3,3.3s-1.5,3.3-3.3,3.3-3.3-1.5-3.3-3.3h0c0-1.8,1.5-3.3,3.3-3.3"/><path d="m22.8,21.2h5.5v2.5h.1c1.1-1.9,3.2-3,5.4-3,5.8,0,6.9,3.8,6.9,8.8v10.1h-5.7v-9c0-2.1,0-4.9-3-4.9s-3.5,2.4-3.5,4.8v9.1h-5.7v-18.4Z"/></g></svg>