<?xml version="1.0" encoding="utf-8"?>
<!-- Generator: Adobe Illustrator 27.4.0, SVG Export Plug-In . SVG Version: 6.00 Build 0)  -->
<svg version="1.1" id="Layer_1" xmlns="http://www.w3.org/2000/svg" xmlns:xlink="http://www.w3.org/1999/xlink" x="0px" y="0px"
	 viewBox="0 0 595.3 370.6" style="enable-background:new 0 0 595.3 370.6;" xml:space="preserve">
<g>
	<path d="M232.6,171.8c0,26.9,1,55.3,22.5,55.3c17.6,0,22.5-23.5,22.5-55.3c0-19.2-1.8-38.4-4.8-57.3c-2.1-13.3-12.7-37.5-3-49.2
		c11-13.2,38.6-9.8,53.3-6.9c17.8,3.5,33.1,18.1,39.8,34.9c8.8,22-2.8,40.9-0.7,62.6c1.9,20.2,7.6,40.3,24.1,53.6
		c16.4,13.2,49.5,22.9,68.3,10.8c17.1-11.1,24.8-40.9,16.4-59.5c-4.3-9.6-13-16.7-22.4-21.4c-17.1-8.4-65-18.1-36.3-45.8
		c13-12.5,31.9-16.2,49.3-16.2c55.8,0,88.6,34.7,88.6,94.4c0,120.8-78.3,179.1-142.4,179.1c-52.3,0-78.3-33.3-81.2-85.1
		c-0.5-10.8-2.9-17.6-13.7-17.6c-10.8,0-14.2,7.3-17.6,18.6c-14.7,48.9-50.4,84.1-117.4,84.1c-60.2,0-95.9-39.6-95.9-105.7
		c0-33.9-1.7-67.8-5.5-101.5c-3.1-28.3-11.1-59.4-7.8-87.8c1.4-12.6,7.6-25.4,18.7-31.6c9-5,19.9-5.1,30.1-3.9
		c29.5,3.5,57.7,17,78.9,37.8c15.4,15.1,27,33.9,33.7,54.4C236.7,132.7,232.6,150.9,232.6,171.8z"/>
</g>
</svg>
